<svg width="44" height="44" viewBox="0 0 44 44" fill="none" xmlns="http://www.w3.org/2000/svg">
<path d="M43.3333 22C43.3333 10.2179 33.7821 0.666656 22 0.666656C10.2179 0.666656 0.666656 10.2179 0.666656 22C0.666656 32.6479 8.46791 41.4737 18.6667 43.0742V28.1667H13.25V22H18.6667V17.3C18.6667 11.9533 21.8517 8.99999 26.7246 8.99999C29.0587 8.99999 31.5 9.41666 31.5 9.41666V14.6667H28.81C26.16 14.6667 25.3333 16.3112 25.3333 17.9983V22H31.25L30.3042 28.1667H25.3333V43.0742C35.5321 41.4737 43.3333 32.6483 43.3333 22Z" fill="#1877F2"/>
<path d="M30.3042 28.1667L31.25 22H25.3333V17.9983C25.3333 16.3112 26.16 14.6667 28.81 14.6667H31.5V9.41667C31.5 9.41667 29.0588 9 26.7246 9C21.8517 9 18.6667 11.9533 18.6667 17.3V22H13.25V28.1667H18.6667V43.0742C19.7529 43.2446 20.8658 43.3333 22 43.3333C23.1342 43.3333 24.2471 43.2446 25.3333 43.0742V28.1667H30.3042Z" fill="white"/>
</svg>
