<svg width="44" height="44" viewBox="0 0 44 44" fill="none" xmlns="http://www.w3.org/2000/svg">
<mask id="mask0_291_23744" style="mask-type:alpha" maskUnits="userSpaceOnUse" x="0" y="0" width="44" height="44">
<path d="M13.0689 0.718561C10.799 0.825697 9.24866 1.18928 7.89389 1.72013C6.49145 2.26686 5.3026 2.99957 4.11996 4.18706C2.93592 5.37524 2.20878 6.56619 1.6662 7.97005C1.14088 9.32827 0.784906 10.8794 0.684669 13.1507C0.585149 15.4261 0.562327 16.1519 0.57342 21.9449C0.584471 27.7373 0.610037 28.4644 0.718547 30.7406C0.827052 33.0098 1.18928 34.5595 1.72012 35.915C2.26755 37.3175 2.9995 38.5056 4.18767 39.689C5.37516 40.8724 6.5668 41.5988 7.9713 42.1421C9.32814 42.6667 10.8799 43.0241 13.1505 43.1236C15.4259 43.2239 16.1524 43.246 21.944 43.2349C27.7383 43.2239 28.4648 43.1983 30.7402 43.0904C33.0101 42.9819 34.5591 42.6184 35.9152 42.0889C37.3176 41.5401 38.5065 40.8095 39.6891 39.6213C40.8718 38.4338 41.5989 37.2421 42.1415 35.8376C42.6669 34.4807 43.0242 32.929 43.123 30.6597C43.2226 28.3829 43.2461 27.6557 43.235 21.8634C43.224 16.0703 43.1977 15.3446 43.0899 13.0698C42.982 10.7985 42.6185 9.24949 42.0883 7.89333C41.5402 6.49087 40.8089 5.30336 39.6214 4.11932C38.4339 2.93666 37.2423 2.20812 35.8378 1.66691C34.4803 1.14158 32.9292 0.78353 30.6586 0.68538C28.3832 0.584464 27.6567 0.562359 21.8631 0.573414C16.0708 0.584469 15.3444 0.60936 13.0689 0.718561ZM13.3178 39.284C11.2379 39.1934 10.1085 38.8478 9.35581 38.5582C8.35909 38.1725 7.64785 37.7101 6.89927 36.967C6.15209 36.2212 5.68828 35.512 5.29914 34.5174C5.00674 33.7646 4.65494 32.6366 4.55748 30.5567C4.45172 28.3082 4.42755 27.6336 4.41717 21.9373C4.40611 16.2425 4.42683 15.5678 4.525 13.3173C4.61414 11.2388 4.96185 10.108 5.25075 9.35592C5.63643 8.35781 6.09745 7.64793 6.8419 6.89937C7.58769 6.15078 8.29686 5.68836 9.29219 5.29922C10.0442 5.00544 11.1723 4.65637 13.2514 4.55755C15.5013 4.45109 16.1752 4.42829 21.87 4.41723C27.5662 4.40616 28.2408 4.42622 30.4914 4.52506C32.5698 4.6156 33.7006 4.95983 34.4519 5.25083C35.4493 5.63651 36.1606 6.09617 36.9085 6.842C37.6563 7.58782 38.1201 8.29561 38.5093 9.29302C38.803 10.043 39.1521 11.1724 39.2503 13.2509C39.3574 15.5008 39.3816 16.1754 39.3919 21.8703C39.403 27.5666 39.3823 28.2412 39.2834 30.4904C39.1929 32.5702 38.848 33.7003 38.5577 34.4538C38.172 35.4498 37.7109 36.161 36.9658 36.9096C36.2207 37.6555 35.5116 38.1206 34.5155 38.5098C33.7649 38.8028 32.6355 39.1526 30.5577 39.2515C28.3079 39.3572 27.6339 39.3814 21.937 39.3918C16.2422 39.4028 15.5683 39.3814 13.3178 39.284ZM30.7091 10.5006C30.7118 11.9134 31.8606 13.0574 33.2734 13.0546C34.6869 13.0518 35.8309 11.9037 35.8288 10.4909C35.826 9.07806 34.6773 7.93343 33.2638 7.9362C31.8503 7.93896 30.7063 9.08774 30.7091 10.5006ZM10.9504 21.9249C10.9622 27.9751 15.8759 32.8688 21.9246 32.8571C27.974 32.8453 32.8704 27.9329 32.8587 21.8827C32.847 15.8347 27.9325 10.9381 21.8824 10.9499C15.8337 10.9616 10.9386 15.8761 10.9504 21.9249ZM14.7928 21.9173C14.7859 17.9905 17.964 14.8006 21.89 14.7937C25.8168 14.7861 29.0073 17.9629 29.0149 21.8903C29.0226 25.8178 25.8444 29.007 21.917 29.0146C17.991 29.0222 14.8004 25.8448 14.7928 21.9173Z" fill="#000008"/>
</mask>
<g mask="url(#mask0_291_23744)">
<rect x="-1.21588" y="-1.21558" width="46.4533" height="46.4533" fill="url(#paint0_radial_291_23744)"/>
<g filter="url(#filter0_f_291_23744)">
<ellipse cx="7.47744" cy="-2.98332" rx="26.8" ry="18.76" transform="rotate(-14.9317 7.47744 -2.98332)" fill="#7334FF"/>
</g>
<g filter="url(#filter1_f_291_23744)">
<circle cx="43.7486" cy="-0.917772" r="25.3111" fill="#B202F5"/>
</g>
<g filter="url(#filter2_f_291_23744)">
<circle cx="7.71741" cy="40.4733" r="14.2933" fill="#FFB401"/>
</g>
</g>
<defs>
<filter id="filter0_f_291_23744" x="-55.7196" y="-59.2359" width="126.394" height="112.505" filterUnits="userSpaceOnUse" color-interpolation-filters="sRGB">
<feFlood flood-opacity="0" result="BackgroundImageFix"/>
<feBlend mode="normal" in="SourceGraphic" in2="BackgroundImageFix" result="shape"/>
<feGaussianBlur stdDeviation="18.425" result="effect1_foregroundBlur_291_23744"/>
</filter>
<filter id="filter1_f_291_23744" x="-26.2292" y="-70.8955" width="139.956" height="139.956" filterUnits="userSpaceOnUse" color-interpolation-filters="sRGB">
<feFlood flood-opacity="0" result="BackgroundImageFix"/>
<feBlend mode="normal" in="SourceGraphic" in2="BackgroundImageFix" result="shape"/>
<feGaussianBlur stdDeviation="22.3333" result="effect1_foregroundBlur_291_23744"/>
</filter>
<filter id="filter2_f_291_23744" x="-42.3093" y="-9.55334" width="100.053" height="100.053" filterUnits="userSpaceOnUse" color-interpolation-filters="sRGB">
<feFlood flood-opacity="0" result="BackgroundImageFix"/>
<feBlend mode="normal" in="SourceGraphic" in2="BackgroundImageFix" result="shape"/>
<feGaussianBlur stdDeviation="17.8667" result="effect1_foregroundBlur_291_23744"/>
</filter>
<radialGradient id="paint0_radial_291_23744" cx="0" cy="0" r="1" gradientUnits="userSpaceOnUse" gradientTransform="translate(17.2463 43.1533) rotate(-61.8868) scale(24.6455)">
<stop stop-color="#FFD502"/>
<stop offset="0.869374" stop-color="#FF1154"/>
</radialGradient>
</defs>
</svg>
