<svg width="24" height="14" viewBox="0 0 24 14" fill="none" xmlns="http://www.w3.org/2000/svg">
<path d="M2.384 0.989999V8.964C2.384 9.912 2.63 10.626 3.122 11.106C3.626 11.586 4.322 11.826 5.21 11.826C6.11 11.826 6.806 11.586 7.298 11.106C7.802 10.626 8.054 9.912 8.054 8.964V0.989999H10.106V8.928C10.106 9.948 9.884 10.812 9.44 11.52C8.996 12.228 8.402 12.756 7.658 13.104C6.914 13.452 6.092 13.626 5.192 13.626C4.292 13.626 3.47 13.452 2.726 13.104C1.994 12.756 1.412 12.228 0.98 11.52C0.548 10.812 0.332 9.948 0.332 8.928V0.989999H2.384ZM20.3197 10.944H15.0817L14.1817 13.5H12.0397L16.5217 0.971999H18.8977L23.3797 13.5H21.2197L20.3197 10.944ZM19.7437 9.27L17.7097 3.456L15.6577 9.27H19.7437Z" fill="black"/>
</svg>
