<svg width="25" height="24" viewBox="0 0 25 24" fill="none" xmlns="http://www.w3.org/2000/svg">
<path d="M11.9951 2.7139C12.2017 2.29536 12.7985 2.29536 13.0051 2.7139L15.6791 8.13203C15.7611 8.29823 15.9196 8.41343 16.1031 8.44008L22.0823 9.30892C22.5442 9.37604 22.7286 9.94366 22.3944 10.2695L18.0678 14.4869C17.9351 14.6162 17.8745 14.8026 17.9058 14.9853L18.9272 20.9404C19.0061 21.4004 18.5233 21.7513 18.1101 21.5341L12.7621 18.7224C12.5981 18.6362 12.4021 18.6362 12.238 18.7224L6.89002 21.5341C6.47689 21.7513 5.99404 21.4004 6.07294 20.9404L7.09432 14.9853C7.12565 14.8026 7.06509 14.6162 6.93236 14.4869L2.60573 10.2695C2.2715 9.94366 2.45594 9.37604 2.91783 9.30892L8.89708 8.44008C9.0805 8.41343 9.23906 8.29823 9.32109 8.13203L11.9951 2.7139Z" stroke="white" stroke-width="2" stroke-linejoin="round"/>
</svg>
