<svg width="44" height="31" viewBox="0 0 44 31" fill="none" xmlns="http://www.w3.org/2000/svg">
<path d="M42.4417 4.76053C41.951 2.91301 40.5055 1.45774 38.6696 0.963921C35.3423 0.0664673 22 0.0664673 22 0.0664673C22 0.0664673 8.65772 0.0664673 5.3302 0.963921C3.49457 1.45774 2.04875 2.91301 1.55808 4.76053C0.666687 8.10962 0.666687 15.0968 0.666687 15.0968C0.666687 15.0968 0.666687 22.0842 1.55808 25.4332C2.04875 27.2808 3.49457 28.7358 5.3302 29.2298C8.65772 30.1271 22 30.1271 22 30.1271C22 30.1271 35.3423 30.1271 38.6696 29.2298C40.5055 28.7358 41.951 27.2808 42.4417 25.4332C43.3334 22.0842 43.3334 15.0968 43.3334 15.0968C43.3334 15.0968 43.3334 8.10962 42.4417 4.76053Z" fill="#ED1F24"/>
<path d="M17.6341 21.4404L28.7856 15.0967L17.6341 8.75269V21.4404Z" fill="white"/>
</svg>
