<?xml version="1.0" encoding="UTF-8"?>
<svg id="Outlines" xmlns="http://www.w3.org/2000/svg" viewBox="0 0 3786.89 2745.19">
  <defs>
    <style>
      .cls-1 {
        fill: #fff;
        stroke-width: 0px;
      }
    </style>
  </defs>
  <g>
    <path class="cls-1" d="M1561.07,1372.76c-.96,187.35-303.37,291.03-458.07,331.91-34.83,8.16-121.08,29.59-143.8,10.67-16.52-17.05,15.24-58.88,33.88-98.68,6.79-13.36,13.21-26.68,19.4-40.78,28.06-63.63,46.27-132.85,46.02-203.28.25-70.42-17.96-139.64-46.02-203.28-6.19-14.1-12.61-27.43-19.4-40.78-18.81-40.09-50.34-81.54-33.89-98.68,22.65-18.97,109.3,2.61,143.8,10.67,154.7,40.88,457.04,144.5,458.07,331.91v.32Z"/>
    <ellipse class="cls-1" cx="841.87" cy="1372.6" rx="112.72" ry="349.94"/>
  </g>
  <path class="cls-1" d="M2074.42,1269c-16.97,50.64-67.11,188.87-75.17,212.47-1.95,5.69-6.11,13.28-10.5,18.89-14.26,18.87-39.54,25.73-62.41,22.21-21.93-2.47-41.1-19.06-48.7-39.02-9.9-27.26-54.91-153.85-74.69-209.05-1.87-4.95-2.58-10.56-2.46-16.07.74-35.09,46.93-48.15,67.86-21.29,3.99,5.05,6.61,10.78,8.15,16.58,7.43,24.85,32.43,109.01,37.42,125.73,4.23,18.35,25.57,28.71,40.88,15.5,4.96-4.28,8.12-10.06,9.58-15.94,7.08-23.27,32.29-108.63,39.32-130.75,1.31-3.57,4.47-8.96,7.52-12.46,11.03-13.43,31.89-16.68,46.59-7.54,14.16,8.3,20.02,25.31,16.65,40.61l-.03.13Z"/>
  <path class="cls-1" d="M2198.91,1258.7c.78,51.36,0,174.85.27,223.38.08,11.44-4.77,25.66-13.74,33.12-21.63,18.31-49.05,2.84-53.6-23.06-2.81-25.17-.3-200.67-1.11-228.22-.1-4.73.96-11.05,2.8-16.55,6.26-19.85,28.05-31.44,46.63-20.6,11.12,6.07,17.56,19.8,18.73,31.8l.02.14Z"/>
  <path class="cls-1" d="M2268.21,1492.95c-.71-55.88-.51-213.35-.11-239.36,1.66-14,10.68-26.54,25.09-29.85,4.34-1.15,8.33-1.15,12.84-1.11,22.26-.07,57.87.05,82.14,0,28.4-.88,66.93,1.85,87.92,15.9,27.83,16.45,37.71,53.46,30.07,84.7-5.46,20.75-18.93,36.43-39.81,43.61-12.68,4.13-11.32,4.97.41,8.27,22.54,6.44,38.37,21.35,45.54,43.19,8.3,26.4,2.4,60.5-17.32,79.06-24.16,24.76-66.16,26.42-101.58,25.76-29.72-.31-67.86.51-95.79-.26-15.96-1.87-27.11-13.74-29.39-29.79l-.02-.13ZM2339.55,1313.01c.15,19.34,15.69,32.98,34.72,32.47,11.29.07,23.17.6,34.02-1.83,20.26-4.01,27.51-21.05,23.82-39.5-4.03-21.13-26.73-24.44-45.06-24.14-7.98.1-16.04-.53-23.74,1.41-13.78,3.2-24.01,17.15-23.77,31.12v.46ZM2339.5,1435.39c.53,21.07,16.98,33.74,37.53,32.63,11.7-.13,24.49.65,35.49-1.31,7.98-1.37,15.15-4.45,19.94-9.8,8.76-9.59,9.99-25.86,4.65-37.61-4.88-10.86-16.46-15.8-28.44-17.01-5.54-.68-11.11-.71-16.88-.72-8.16.13-16.63-.41-24.56.6-15.93,1.87-28.28,16.75-27.73,32.99v.23Z"/>
  <path class="cls-1" d="M2655.19,1258.75c.75,36.56.05,107.58.28,152.3,0,34.5,0,61.66,0,71.08.1,22.95-17.44,44.47-41.99,40.53-15.59-2.38-27.32-16.44-29.84-31.66-2.38-28.26-.3-201.4-.89-229.51.17-4.6,2.07-13.56,4.86-18.68,7.5-15.79,26.71-24.56,43.25-18.07,13.96,4.88,22.91,19.59,24.32,33.86l.02.14Z"/>
  <path class="cls-1" d="M2910.79,1522.48c-16.09,1.45-31.39-4.49-40.17-18.02-7.05-11.01-14.19-23.22-21.21-34.59-6.44-9.89-10.06-20.25-21.01-23.4-6.55-2.09-13.89.37-18.74,4.99-3.67,3.47-6.64,9.34-10.35,15.5-5.29,8.98-11.11,18.85-16.31,27.68-4.18,7.04-7.3,13.11-13.54,18.39-14.3,13.12-40.61,12.38-53.71-2.52-13.8-15.52-10.06-34.6,1.88-49.75,8.79-12.72,22.89-32.34,31.76-45.75,16.87-24.89,21.78-50.51,6.75-77.49-4.87-9.42-9.11-15.58-15.43-25.08-5.64-8.45-14.2-21.29-19.11-28.65-5.45-7.96-9.03-14.16-10.13-23.27-2.36-20.26,14.37-37.17,34.28-38.14,22.19-2.02,36.47,7.33,46.22,26.55,4.45,7.69,9.47,16.32,14,24.15,4.36,7.37,6.54,11.96,10.53,15.67,7.15,6.82,18.34,7.14,25.8.64,3.91-3.28,6.03-7.31,9.63-13.41,4.44-7.58,9.41-16.09,13.92-23.8,5.34-8.96,7.31-13.26,12.77-18.69,33.18-30.67,81.29,8.65,53.6,47.05-12.27,18.85-26.73,37.78-37.36,57.1-19.93,34.45-1.86,61.04,18.1,89.78,5.29,7.76,14.27,20.95,20.28,29.77,5.57,8.34,8.66,11.95,11.23,19.73,7.78,22.37-9.85,44.84-33.45,45.56l-.23.02Z"/>
  <circle class="cls-1" cx="3027.56" cy="1252.3" r="30.17"/>
</svg>