<?xml version="1.0" encoding="UTF-8"?>
<svg id="Outlines" xmlns="http://www.w3.org/2000/svg" viewBox="0 0 3786.89 2745.19">
  <defs>
    <style>
      .cls-1 {
        stroke-width: 0px;
      }
    </style>
  </defs>
  <circle class="cls-1" cx="1486.96" cy="938.93" r="93.31"/>
  <g>
    <path class="cls-1" d="M2343.69,969.74c162.89,164.57-10.78,519.46-110.25,690.37-23.31,37.56-79.96,131.67-116.34,135-29.34-.46-38.14-64.78-56.63-115.85-5.74-17.61-11.78-34.86-18.69-52.59-31.09-80.13-75.67-156.53-137.43-217.86-61.33-61.76-137.73-106.34-217.86-137.43-17.73-6.91-34.99-12.95-52.59-18.69-51.47-18.6-115.25-27.27-115.85-56.63,3.22-36.37,97.8-93.24,135-116.34,170.92-99.47,525.69-273.13,690.37-110.25l.28.28Z"/>
    <ellipse class="cls-1" cx="1715.03" cy="1598.11" rx="139.31" ry="432.49" transform="translate(-627.72 1680.78) rotate(-45)"/>
  </g>
</svg>