<?xml version="1.0" encoding="UTF-8"?>
<svg id="Outlines" xmlns="http://www.w3.org/2000/svg" viewBox="0 0 3786.89 2745.19">
  <defs>
    <style>
      .cls-1 {
        stroke-width: 0px;
      }
    </style>
  </defs>
  <path class="cls-1" d="M1114.84,1144.77c-37.25,111.17-147.32,414.61-165.01,466.42-4.28,12.48-13.4,29.16-23.05,41.47-31.3,41.43-86.81,56.47-137.01,48.75-48.14-5.43-90.22-41.84-106.92-85.66-21.73-59.84-120.54-337.73-163.97-458.92-4.12-10.86-5.66-23.18-5.39-35.27,1.63-77.04,103.02-105.7,148.97-46.73,8.76,11.1,14.52,23.67,17.89,36.41,16.3,54.56,71.18,239.31,82.15,276.01,9.29,40.28,56.12,63.03,89.74,34.02,10.88-9.39,17.83-22.09,21.04-34.99,15.54-51.08,70.89-238.47,86.31-287.03,2.88-7.85,9.8-19.67,16.5-27.35,24.21-29.48,70-36.61,102.28-16.56,31.09,18.23,43.95,55.57,36.54,89.15l-.06.29Z"/>
  <path class="cls-1" d="M1388.12,1122.16c1.71,112.74.01,383.84.59,490.36.17,25.11-10.46,56.34-30.16,72.71-47.48,40.2-107.67,6.22-117.67-50.63-6.16-55.26-.66-440.52-2.44-501-.21-10.38,2.1-24.26,6.15-36.34,13.73-43.58,61.57-69.03,102.37-45.21,24.41,13.32,38.54,43.47,41.11,69.8l.04.31Z"/>
  <path class="cls-1" d="M1540.26,1636.39c-1.56-122.66-1.12-468.36-.23-525.46,3.65-30.74,23.45-58.27,55.07-65.52,9.53-2.52,18.28-2.52,28.19-2.44,48.87-.15,127.03.11,180.32,0,62.34-1.93,146.92,4.06,193.01,34.91,61.1,36.12,82.78,117.35,66.01,185.94-11.99,45.56-41.57,79.97-87.38,95.73-27.84,9.07-24.85,10.92.89,18.16,49.47,14.15,84.24,46.87,99.98,94.81,18.22,57.95,5.27,132.81-38.02,173.56-53.05,54.36-145.23,58.01-223,56.56-65.24-.67-148.97,1.12-210.27-.57-35.04-4.12-59.51-30.16-64.52-65.39l-.04-.29ZM1696.86,1241.38c.33,42.46,34.44,72.4,76.22,71.28,24.79.16,50.87,1.32,74.68-4.01,44.47-8.8,60.4-46.2,52.3-86.71-8.85-46.38-58.68-53.66-98.91-53-17.51.23-35.22-1.16-52.12,3.1-30.25,7.02-52.7,37.65-52.18,68.32v1.01ZM1696.74,1510.04c1.16,46.26,37.27,74.07,82.39,71.63,25.68-.28,53.75,1.43,77.92-2.87,17.52-3,33.26-9.77,43.78-21.52,19.23-21.05,21.92-56.77,10.22-82.57-10.72-23.83-36.13-34.68-62.44-37.35-12.17-1.5-24.4-1.55-37.05-1.58-17.91.29-36.52-.9-53.93,1.32-34.97,4.1-62.08,36.77-60.88,72.42v.51Z"/>
  <path class="cls-1" d="M2389.76,1122.27c1.65,80.26.11,236.17.62,334.33-.01,75.74,0,135.36,0,156.04.21,50.38-38.28,97.62-92.18,88.97-34.21-5.23-59.98-36.1-65.52-69.5-5.23-62.03-.65-442.12-1.95-503.82.38-10.1,4.55-29.76,10.66-41,16.47-34.66,58.62-53.91,94.94-39.66,30.64,10.71,50.3,43.01,53.4,74.33l.04.3Z"/>
  <path class="cls-1" d="M2950.86,1701.23c-35.32,3.18-68.9-9.85-88.18-39.55-15.47-24.18-31.15-50.97-46.56-75.93-14.15-21.7-22.08-44.45-46.12-51.37-14.38-4.6-30.49.81-41.13,10.95-8.06,7.61-14.57,20.49-22.72,34.02-11.61,19.72-24.39,41.38-35.81,60.76-9.18,15.46-16.03,28.77-29.72,40.38-31.39,28.81-89.14,27.17-117.91-5.54-30.29-34.07-22.09-75.96,4.12-109.21,19.29-27.92,50.24-70.99,69.72-100.44,37.04-54.63,47.81-110.88,14.82-170.12-10.7-20.68-20-34.2-33.88-55.05-12.37-18.55-31.16-46.73-41.94-62.9-11.96-17.48-19.82-31.08-22.24-51.09-5.18-44.48,31.54-81.59,75.24-83.72,48.71-4.44,80.06,16.1,101.46,58.29,9.77,16.88,20.78,35.82,30.74,53.02,9.57,16.17,14.36,26.26,23.12,34.39,15.69,14.97,40.26,15.68,56.63,1.41,8.58-7.19,13.23-16.06,21.15-29.44,9.75-16.65,20.65-35.32,30.57-52.25,11.73-19.66,16.05-29.1,28.04-41.03,72.83-67.34,178.44,18.99,117.66,103.28-26.93,41.37-58.68,82.94-82.01,125.34-43.75,75.63-4.08,134,39.73,197.08,11.61,17.04,31.33,45.99,44.52,65.34,12.24,18.3,19,26.23,24.64,43.31,17.08,49.11-21.62,98.43-73.42,100.01l-.51.04Z"/>
  <circle class="cls-1" cx="3207.21" cy="1108.12" r="66.23"/>
</svg>