<svg width="111" height="80" viewBox="0 0 111 80" fill="none" xmlns="http://www.w3.org/2000/svg">
<path d="M32.4885 33.3607C31.4029 36.6004 28.1953 45.4433 27.6798 46.9531C27.555 47.3168 27.2893 47.8029 27.0081 48.1616C26.0959 49.369 24.4782 49.8073 23.0153 49.5823C21.6124 49.424 20.3861 48.363 19.8995 47.086C19.2662 45.3421 16.3867 37.2439 15.1211 33.7122C15.001 33.3957 14.9561 33.0367 14.964 32.6844C15.0115 30.4393 17.9662 29.6041 19.3053 31.3226C19.5606 31.646 19.7284 32.0124 19.8266 32.3836C20.3016 33.9736 21.9009 39.3576 22.2206 40.4271C22.4914 41.6009 23.8561 42.2639 24.8358 41.4185C25.1529 41.1448 25.3554 40.7747 25.449 40.3988C25.9018 38.9102 27.5148 33.4493 27.9642 32.0342C28.0481 31.8054 28.2498 31.461 28.445 31.2372C29.1506 30.3781 30.485 30.1703 31.4257 30.7546C32.3317 31.2858 32.7065 32.374 32.4905 33.3526L32.4888 33.361L32.4885 33.3607Z" fill="#FBA919"/>
<path d="M40.4524 32.7019C40.5023 35.9873 40.4527 43.8877 40.4696 46.9919C40.4746 47.7236 40.1648 48.6337 39.5907 49.1108C38.2071 50.2823 36.453 49.292 36.1616 47.6353C35.9821 46.0249 36.1424 34.7977 36.0905 33.0352C36.0844 32.7327 36.1517 32.3283 36.2697 31.9762C36.6698 30.7062 38.064 29.9646 39.253 30.6587C39.9643 31.0469 40.3761 31.9255 40.451 32.6928L40.4522 32.7019H40.4524Z" fill="#FBA919"/>
<path d="M44.8861 47.6875C44.8407 44.1129 44.8535 34.0386 44.8794 32.3746C44.9858 31.4788 45.5628 30.6765 46.4843 30.4652C46.762 30.3918 47.017 30.3918 47.3058 30.3941C48.7299 30.3897 51.0077 30.3973 52.5606 30.3941C54.3773 30.3379 56.8422 30.5124 58.1853 31.4115C59.9659 32.4641 60.5977 34.8313 60.109 36.8301C59.7596 38.1578 58.8975 39.1606 57.5626 39.6198C56.7512 39.8842 56.8384 39.9381 57.5885 40.1491C59.0301 40.5614 60.0434 41.5149 60.5021 42.912C61.0331 44.6008 60.6557 46.7823 59.3941 47.9699C57.8481 49.554 55.1618 49.6604 52.8955 49.6181C50.9943 49.5986 48.5542 49.6508 46.7678 49.6015C45.7467 49.4815 45.0336 48.7226 44.8876 47.6959L44.8864 47.6875H44.8861ZM49.4497 36.1762C49.4594 37.4135 50.4534 38.286 51.6709 38.2534C52.3934 38.258 53.1534 38.2919 53.8473 38.1365C55.1432 37.8801 55.6074 36.7902 55.3714 35.6096C55.1135 34.258 53.6613 34.0459 52.489 34.0651C51.9787 34.0718 51.4626 34.0313 50.9701 34.1555C50.0885 34.36 49.4343 35.2526 49.4495 36.1464V36.1759L49.4497 36.1762ZM49.4463 44.0054C49.4801 45.3535 50.5324 46.1639 51.8473 46.0928C52.5956 46.0847 53.4136 46.1345 54.118 46.0092C54.6286 45.9218 55.0872 45.7245 55.3938 45.3821C55.9542 44.7686 56.0326 43.7277 55.6916 42.9758C55.3792 42.2814 54.6388 41.9652 53.872 41.8874C53.5174 41.8437 53.161 41.8422 52.7923 41.8413C52.2704 41.8498 51.7281 41.8151 51.2207 41.8798C50.2016 41.9993 49.4116 42.9513 49.4465 43.9903V44.0051L49.4463 44.0054Z" fill="#FBA919"/>
<path d="M69.6421 32.705C69.6902 35.044 69.6453 39.5875 69.6602 42.4481C69.6599 44.6553 69.6602 46.3927 69.6602 46.9953C69.6663 48.4635 68.5446 49.8402 66.9739 49.5881C65.9769 49.4357 65.226 48.5361 65.0645 47.5627C64.9121 45.7551 65.0456 34.6785 65.0077 32.8805C65.0188 32.5861 65.1403 32.0132 65.3183 31.6857C65.7983 30.6756 67.0266 30.1146 68.0851 30.5299C68.978 30.842 69.5509 31.7833 69.6412 32.696L69.6424 32.7048L69.6421 32.705Z" fill="#FBA919"/>
<path d="M85.9937 49.5771C84.9644 49.6697 83.9858 49.29 83.4239 48.4245C82.9731 47.7198 82.5162 46.9391 82.0671 46.2118C81.6547 45.5794 81.4236 44.9164 80.7231 44.7147C80.304 44.5807 79.8345 44.7383 79.5245 45.0338C79.2896 45.2556 79.0999 45.631 78.8623 46.0252C78.524 46.5999 78.1516 47.2311 77.8188 47.7959C77.5513 48.2464 77.3516 48.6343 76.9527 48.9727C76.0379 49.8122 74.355 49.7644 73.5166 48.8112C72.6339 47.8183 72.8728 46.5976 73.6366 45.6286C74.1988 44.815 75.1007 43.5598 75.6684 42.7016C76.7478 41.1096 77.0617 39.4704 76.1003 37.744C75.7885 37.1413 75.5174 36.7473 75.113 36.1397C74.7525 35.5992 74.2049 34.7779 73.8907 34.3067C73.5422 33.7973 73.3132 33.401 73.2426 32.8179C73.0917 31.5216 74.1618 30.4402 75.4353 30.3781C76.8548 30.2487 77.7684 30.8473 78.392 32.0768C78.6767 32.5687 78.9976 33.1206 79.2878 33.6219C79.5667 34.0931 79.7063 34.3871 79.9616 34.6241C80.4188 35.0603 81.1348 35.081 81.6119 34.6652C81.8619 34.4556 81.9974 34.1971 82.2282 33.8072C82.5124 33.322 82.83 32.7779 83.1191 32.2846C83.4609 31.7116 83.5868 31.4365 83.9362 31.0889C86.0586 29.1265 89.1363 31.6423 87.3651 34.0986C86.5803 35.3042 85.655 36.5157 84.9751 37.7513C83.7002 39.9553 84.8562 41.6563 86.133 43.4946C86.4713 43.9911 87.046 44.8348 87.4303 45.3987C87.787 45.932 87.984 46.1631 88.1484 46.6608C88.6462 48.092 87.5184 49.5293 86.0088 49.5753L85.994 49.5765L85.9937 49.5771Z" fill="#FBA919"/>
<path d="M93.4641 34.2227C94.5301 34.2227 95.3942 33.3586 95.3942 32.2927C95.3942 31.2267 94.5301 30.3626 93.4641 30.3626C92.3982 30.3626 91.5341 31.2267 91.5341 32.2927C91.5341 33.3586 92.3982 34.2227 93.4641 34.2227Z" fill="#FBA919"/>
</svg>
